<?xml version="1.0" encoding="UTF-8"?>
<svg width="36px" height="36px" viewBox="0 0 36 36" version="1.1" xmlns="http://www.w3.org/2000/svg" xmlns:xlink="http://www.w3.org/1999/xlink">
    <title>instagram logo备份</title>
    <g id="页面-1" stroke="none" stroke-width="1" fill="none" fill-rule="evenodd">
        <g id="instagram-logo备份">
            <rect id="矩形" x="0" y="0" width="36" height="36"></rect>
            <g id="instagram-fill" transform="translate(2.000000, 2.000000)" fill="#000000" fill-rule="nonzero">
                <path d="M15.9956995,10.6643951 C13.0577692,10.6643951 10.6601939,13.062015 10.6601939,16 C10.6601939,18.937985 13.0577692,21.3356049 15.9956995,21.3356049 C18.9336298,21.3356049 21.3312051,18.937985 21.3312051,16 C21.3312051,13.062015 18.9336298,10.6643951 15.9956995,10.6643951 Z" id="路径"></path>
                <path d="M31.9982137,16 C31.9982137,13.7905072 32.0182269,11.6010279 31.8941453,9.39553776 C31.7700638,6.83380696 31.1856798,4.56027087 29.3124491,2.68700521 C27.4352157,0.809736858 25.1657245,0.229344722 22.6040414,0.105260886 C20.3945897,-0.0188229495 18.2051512,0.00119057239 15.9997021,0.00119057239 C13.7902504,0.00119057239 11.6008119,-0.0188229495 9.39536285,0.105260886 C6.83367973,0.229344722 4.56018597,0.813739563 2.68695519,2.68700521 C0.809721783,4.56427357 0.229340453,6.83380696 0.105258927,9.39553776 C-0.0188225991,11.6050306 0.00119055023,13.7945099 0.00119055023,16 C0.00119055023,18.2054901 -0.0188225991,20.3989721 0.105258927,22.6044622 C0.229340453,25.166193 0.813724413,27.4397291 2.68695519,29.3129948 C4.5641886,31.1902631 6.83367973,31.7706553 9.39536285,31.8947391 C11.6048145,32.0188229 13.7942531,31.9988094 15.9997021,31.9988094 C18.2091538,31.9988094 20.3985923,32.0188229 22.6040414,31.8947391 C25.1657245,31.7706553 27.4392183,31.1862604 29.3124491,29.3129948 C31.1896825,27.4357264 31.7700638,25.166193 31.8941453,22.6044622 C32.0222295,20.3989721 31.9982137,18.2094928 31.9982137,16 Z M15.9956995,24.2095467 C11.4527146,24.2095467 7.78630564,20.5430695 7.78630564,16 C7.78630564,11.4569305 11.4527146,7.79045331 15.9956995,7.79045331 C20.5386844,7.79045331 24.2050934,11.4569305 24.2050934,16 C24.2050934,20.5430695 20.5386844,24.2095467 15.9956995,24.2095467 Z M24.5413143,9.37152154 C23.4806173,9.37152154 22.6240546,8.5149428 22.6240546,7.45422614 C22.6240546,6.39350948 23.4806173,5.53693074 24.5413143,5.53693074 C25.6020112,5.53693074 26.458574,6.39350948 26.458574,7.45422614 C26.4545713,8.5189455 25.6020112,9.37152154 24.5413143,9.37152154 Z" id="形状"></path>
            </g>
        </g>
    </g>
</svg>