<?xml version="1.0" encoding="UTF-8"?>
<svg width="92px" height="34px" viewBox="0 0 92 34" version="1.1" xmlns="http://www.w3.org/2000/svg" xmlns:xlink="http://www.w3.org/1999/xlink">
    <title>logo备份 4</title>
    <defs>
        <path d="M83.5977267,10.681741 L83.8083686,10.6952197 C84.4093154,10.7415981 84.9835329,10.9549386 85.5323169,11.3352413 C86.1447112,11.7619224 86.6583239,12.3555656 87.0733332,13.116171 C87.7031353,14.2292521 88.1426786,15.833944 88.3887335,17.9302467 C88.6366538,19.9152413 88.6599592,21.923425 88.4520431,23.954798 C88.2253464,26.069652 87.7914233,27.7253601 87.1499728,28.9219223 C86.4186793,30.2668952 85.5293434,30.8187979 84.4912704,30.5776304 C83.9548103,30.4570466 83.59268,30.160225 83.4049751,29.6871655 C83.2502357,29.3161385 83.1645054,28.6761169 83.1472629,27.7671007 C83.1476656,27.5908628 83.14601,27.3728844 83.1422908,27.1131655 L83.1380365,26.7514142 L83.1471855,26.3896628 C83.1420634,25.7403655 83.1322197,25.1791872 83.1177469,24.7061277 C83.0717919,23.240571 82.9398007,21.8167548 82.7235264,20.4346791 C82.6347548,19.8595872 82.4482513,19.1360845 82.1652972,18.264171 L81.9846597,17.7076305 L81.8054857,17.1650034 C81.6481365,16.7104953 81.5294104,16.3441061 81.4489902,16.0658359 C80.9338605,14.3312845 80.8670328,13.0141386 81.2400674,12.1143981 C81.4446336,11.6320629 81.7823084,11.2610359 82.2529635,11.001317 C82.7223563,10.7415981 83.2404298,10.6395657 83.8083686,10.6952197 Z M66.4249533,6.70682958 C67.0312774,4.05479956 68.0754254,2.98256733 69.5731299,3.49013288 C70.302693,3.74391566 70.8095882,4.36568346 71.0938955,5.35543629 C71.4322344,6.54821535 71.3710532,8.09629029 70.9022762,9.99966112 C70.7853588,10.4691593 70.7890336,10.767354 70.9137771,10.8942454 C71.0200008,11.0084477 71.2105411,10.9323128 71.4849113,10.6658409 C72.1438762,10.0186948 72.7914522,8.8195712 73.4225418,7.06847004 C73.7882435,6.04064979 74.2828936,5.39350371 74.9081552,5.12703179 C75.4662402,4.88593816 76.0413835,4.97476213 76.6356234,5.39350371 C77.2229494,5.81224529 77.681095,6.44670224 78.0098984,7.29687454 C78.3661651,8.22318168 78.4905253,9.20024537 78.3804507,10.2280656 C78.2596999,11.3320207 77.9395759,12.2837061 77.4189346,13.0831219 C77.062426,13.6287548 76.580652,14.1363204 75.9731832,14.6058185 C75.8909252,14.6692642 75.7788417,14.7453991 75.6368914,14.834223 L75.4885234,14.9484253 L75.3533622,15.0626275 C75.1539062,15.2022081 75.0235468,15.3227549 74.9624038,15.424268 C74.7979174,15.6526725 74.9075854,15.9064553 75.2921612,16.1856163 C77.4302153,17.7336913 79.0452747,19.7385752 80.1315341,22.2002681 C80.6404466,23.3676689 80.9511197,24.5033468 81.0611909,25.6073019 C81.1770255,26.7620136 81.0603587,27.7961784 80.7091869,28.7097964 C80.3905163,29.5219013 79.943773,30.0865679 79.3696703,30.4037964 C78.810326,30.6956466 78.2064838,30.7083357 77.5598411,30.4418638 C76.8742894,30.1500136 76.236732,29.5726578 75.6484035,28.7097964 C75.0081028,27.758111 74.4760372,26.5399536 74.0517287,25.0553244 C73.3903454,22.7459011 72.7900528,21.2929947 72.247031,20.6966052 C72.03671,20.4682007 71.8828125,20.4174441 71.7850402,20.5443355 C71.6871722,20.6712269 71.6710209,20.905976 71.7367227,21.2485827 L71.7552541,21.3056838 L71.7754261,21.3818187 L71.8037865,21.5531221 C71.8350757,21.7053917 71.8618319,21.8576614 71.8840478,22.0099311 C71.9544055,22.4032944 72.0202952,22.7966577 72.0816983,23.190021 C72.2344057,24.3193543 72.3177349,25.3344854 72.3310686,26.2354143 C72.3385342,28.9128226 71.6547945,30.2832496 70.2824416,30.3466953 C68.788576,30.4228301 67.6402273,28.9445454 66.8469852,25.9118413 C66.2106808,23.4120809 65.8610734,20.1129048 65.7878931,16.0143129 C65.7010996,11.9284102 65.9146365,8.82591577 66.4249533,6.70682958 Z M82.3717458,3.36782793 C84.0108722,3.36782793 85.3396468,4.68148674 85.3396468,6.30196701 C85.3396468,7.92244728 84.0108722,9.23610609 82.3717458,9.23610609 C80.7326193,9.23610609 79.4038447,7.92244728 79.4038447,6.30196701 C79.4038447,4.68148674 80.7326193,3.36782793 82.3717458,3.36782793 Z M62.7978536,30.4037964 C63.388626,30.0865679 63.8650412,29.5219013 64.2263862,28.7097964 C64.6255665,27.7961784 64.7965764,26.7620136 64.7414192,25.6073019 C64.6893583,24.5033468 64.4383626,23.3676689 63.9907944,22.2002681 C63.0338914,19.7385752 61.5241841,17.7336913 59.4674779,16.1856163 C59.0975714,15.9064553 59.001239,15.6526725 59.1777276,15.424268 C59.2442049,15.3227549 59.3808988,15.2022081 59.5876895,15.0626275 L59.7288517,14.9484253 L59.8832208,14.834223 C60.0298385,14.7453991 60.1459227,14.6692642 60.2315147,14.6058185 C60.8636545,14.1363204 61.3721,13.6287548 61.7572803,13.0831219 C62.3199292,12.2837061 62.6900621,11.3320207 62.8688233,10.2280656 C63.0329075,9.20024537 62.9598898,8.22318168 62.6522984,7.29687454 C62.3681696,6.44670224 61.9433634,5.81224529 61.3780412,5.39350371 C60.8058053,4.97476213 60.2353295,4.88593816 59.6645755,5.12703179 C59.0253115,5.39350371 58.4966553,6.04064979 58.0769439,7.06847004 C57.3538379,8.8195712 56.6432507,10.0186948 55.9502798,10.6658409 C55.6619071,10.9323128 55.467366,11.0084477 55.3671434,10.8942454 C55.2490677,10.767354 55.2610624,10.4691593 55.4026509,9.99966112 C55.9714457,8.09629029 56.1139748,6.54821535 55.8383137,5.35543629 C55.6060157,4.36568346 55.131793,3.74391566 54.4155656,3.49013288 C52.9445325,2.98256733 51.8440411,4.05479956 51.0983589,6.70682958 C50.4766889,8.82591577 50.1001229,11.9284102 49.9722114,16.0143129 C49.83002,20.1129048 50.0062631,23.4120809 50.5112107,25.9118413 C51.145091,28.9445454 52.2157592,30.4228301 53.7136255,30.3466953 C55.0893124,30.2832496 55.8450648,28.9128226 55.9782911,26.2354143 C56.0122992,25.3344854 55.9823128,24.3193543 55.8889493,23.190021 C55.8482166,22.7966577 55.8029972,22.4032944 55.7533098,22.0099311 C55.7390954,21.8576614 55.7203406,21.7053917 55.6970528,21.5531221 L55.677694,21.3818187 L55.6615227,21.3056838 L55.645992,21.2485827 C55.5982933,20.905976 55.6267801,20.6712269 55.7313161,20.5443355 C55.8357562,20.4174441 55.9869866,20.4682007 56.1853054,20.6966052 C56.6969882,21.2929947 57.2209339,22.7459011 57.7609622,25.0553244 C58.1072567,26.5399536 58.575311,27.758111 59.1656027,28.7097964 C59.7085898,29.5726578 60.3158085,30.1500136 60.9860241,30.4418638 C61.6186643,30.7083357 62.2231733,30.6956466 62.7978536,30.4037964 Z M40.7111985,30.6278868 C41.8784281,30.5772558 43.0613474,30.203852 44.2560681,29.5076755 C45.4169791,28.8368144 46.3647282,27.9887448 47.0993879,26.9634666 C47.8562406,25.8748996 48.2307706,24.7863326 48.2272104,23.6977656 C48.2191731,22.2421237 47.7944129,21.2927921 46.9548971,20.8497706 C46.0720298,20.3814337 44.853829,20.5523134 43.2915786,21.3624097 C42.8119275,21.6155648 42.4068603,21.6535381 42.0773096,21.4763295 C41.7937169,21.3370942 41.6128302,21.0712814 41.5346119,20.6788909 C41.4654836,20.311816 41.5060762,19.9637277 41.6559982,19.6346261 C41.8239667,19.2928667 42.0721973,19.0966715 42.4008968,19.0460405 C43.377063,18.9194629 44.1024184,18.5587169 44.5761331,17.9638024 C45.0025998,17.4195189 45.196487,16.7233423 45.1591769,15.8752727 C45.1221594,15.0904918 44.8567522,14.5082351 44.3638019,14.1285024 C43.8632728,13.736112 43.2641081,13.6664943 42.5643172,13.9196494 C41.9711955,14.1348313 41.5928589,13.9133206 41.4305816,13.2551173 C41.3714328,12.9766466 41.3704347,12.6918471 41.4274109,12.4007188 C41.4933213,12.0969326 41.6116983,11.8564353 41.7824827,11.6792267 C42.0338205,11.4134138 42.4169242,11.2362053 42.9319039,11.147601 C43.1094518,11.1096277 43.3445322,11.0779833 43.6371414,11.0526678 L44.0094397,11.0336812 L44.3684227,10.9957079 C44.9620805,10.9324191 45.4180375,10.8058416 45.7361696,10.6159752 C46.1861285,10.3501624 46.4973464,9.92612755 46.6699145,9.34387079 C46.9702767,8.3439081 46.8354389,7.33128765 46.2702019,6.30600945 C45.7353549,5.33136227 44.9535739,4.56556805 43.9251843,4.0086268 C42.849374,3.4390278 41.7695718,3.24916147 40.6812393,3.4390278 C39.4526094,3.6668674 38.3919658,4.37570172 37.4951748,5.56553074 C36.663247,6.66675548 36.0057984,8.41352575 35.5224123,10.8058416 C35.0743174,13.008291 34.8374377,15.4322512 34.8171966,18.0777222 C34.8079104,20.7105353 35.0227458,23.0522201 35.4659534,25.1027765 C35.9492882,27.305226 36.6306537,28.7925123 37.5073497,29.5646354 C38.3605557,30.3241007 39.4297253,30.6785179 40.7111985,30.6278868 Z M23.0093274,5.31074082 C24.3073019,3.78879239 25.7663607,3.16098866 27.398877,3.42732963 C28.6530261,3.63025609 29.6780612,4.23903547 30.477315,5.25366775 C31.2086631,6.19220262 31.7000798,7.38439556 31.9500307,8.83024657 C32.179635,10.2126831 32.1584108,11.6585341 31.8824846,13.1677996 C31.5948148,14.689748 31.0695621,16.0658431 30.3039274,17.2960847 C30.1382914,17.5624257 30.0939417,17.8287667 30.1712187,18.0951077 C30.2252309,18.2853512 30.3960969,18.5833995 30.6844068,18.9892524 L30.7868309,19.1224229 L30.8893559,19.2555933 C30.9747279,19.3697395 31.0516809,19.4712027 31.1201945,19.559983 C31.2993543,19.8136411 31.4609719,20.0609577 31.6049892,20.3019329 C32.0047763,20.9614439 32.3543113,21.6716865 32.6534239,22.4326607 C33.1126459,23.6248536 33.3236684,24.7789979 33.2833879,25.8950934 C33.2472271,26.8970428 33.0190106,27.7975289 32.5971502,28.5965519 C32.2136421,29.3194774 31.7276587,29.8648422 31.1394383,30.2326464 C30.5592103,30.6004506 29.9988095,30.7145968 29.4596633,30.5750848 C28.1882017,30.2453293 27.2856947,29.2433799 26.7553128,27.5692367 C26.6698947,27.2775299 26.5783642,26.9350915 26.4808115,26.5419215 L26.3722282,26.0282639 L26.2618449,25.552655 C26.0869398,24.7789979 25.9125642,24.2399745 25.7381419,23.9355848 C25.4483344,23.4282686 25.2115204,23.3268054 25.0266003,23.6311951 C24.76947,24.0497309 24.5531953,25.2355824 24.3778091,27.1887496 C24.2801785,28.2414306 23.9766837,29.0785022 23.4660037,29.6999645 C22.9851194,30.2706951 22.4251197,30.5433776 21.7873559,30.5180118 C21.1120812,30.4926459 20.5140214,30.1438661 19.9950306,29.4716722 C19.4111457,28.710698 19.0183158,27.658017 18.8162191,26.3136292 C18.4808935,24.0941211 18.4264713,21.6272963 18.6472219,18.9131549 C18.8761385,16.1102332 19.3558084,13.5356038 20.0794145,11.1892666 C20.8656343,8.61463721 21.8422405,6.6551286 23.0093274,5.31074082 Z M23.893574,9.96295461 C23.4012332,9.93700812 22.953911,10.2094463 22.5510157,10.780269 C22.1657178,11.3510918 21.9272736,12.0516471 21.8361314,12.8819347 C21.7632986,13.7122224 21.8824788,14.4257509 22.1942663,15.0225202 C22.4866497,15.6452359 22.8819159,15.969567 23.3795518,15.9955135 C23.8587407,16.02146 24.3006547,15.7490219 24.7047036,15.1781991 C25.1080094,14.6073763 25.3431885,13.9068211 25.4107579,13.0765334 C25.4782732,12.2462457 25.3653096,11.519744 25.0724549,10.8970282 C24.7787573,10.300259 24.3859604,9.9889011 23.893574,9.96295461 Z M28.81181,9.96295461 C28.3194692,9.93700812 27.8721469,10.2094463 27.4692516,10.780269 C27.0839538,11.3510918 26.8455095,12.0516471 26.7543673,12.8819347 C26.6815345,13.7122224 26.8007148,14.4257509 27.1125022,15.0225202 C27.4048857,15.6452359 27.8001519,15.969567 28.2977878,15.9955135 C28.7769766,16.02146 29.2188906,15.7490219 29.6229396,15.1781991 C30.0262453,14.6073763 30.2614244,13.9068211 30.3289938,13.0765334 C30.3965091,12.2462457 30.2835456,11.519744 29.9906908,10.8970282 C29.6969933,10.300259 29.3041964,9.9889011 28.81181,9.96295461 Z M23.6535211,7.89478537 C24.4690978,9.25330946 25.0262418,9.6310264 25.3249532,9.02793616 C25.6236645,8.42484593 25.0665205,8.04712899 23.6535211,7.89478537 Z M29.4734097,7.89478537 C28.0604104,8.04712899 27.5032663,8.42484593 27.8019777,9.02793616 C28.100689,9.6310264 28.6578331,9.25330946 29.4734097,7.89478537 Z M9.28235003,30.5914218 C11.3571495,30.2231422 12.38616,27.5118425 12.3870467,22.4575226 C12.3913762,19.7906704 12.4892806,17.5111467 12.677021,15.6189516 C12.8788177,13.5997634 13.1437657,12.4250785 13.4711573,12.0948968 C13.6885846,11.8790088 14.0456793,11.7583655 14.5425991,11.7329669 L15.2310107,11.7329669 L15.5865535,11.7520158 L15.9458997,11.7329669 C16.5208014,11.7202676 16.9823434,11.5996243 17.3301637,11.371037 C17.7889874,11.0789531 18.1153193,10.5900302 18.3093502,9.90426824 C18.4634752,9.37845572 18.1093061,8.62713267 17.2468427,7.65029909 L17.2479392,7.64933469 C17.0962526,7.4768661 17.0437199,7.238606 17.1088147,7.01834042 C17.3129118,6.32618824 17.2129174,5.80863916 16.8094099,5.46586419 C15.4128191,4.28482964 13.5256324,3.59906764 11.1405348,3.4085782 C9.06363552,3.24348735 7.32009718,3.5800187 5.90196427,4.41817225 C5.48308735,4.66459768 5.29554694,5.13719512 5.33934303,5.8359646 L5.33939265,5.83596154 C5.3540403,6.07415517 5.24060986,6.30209542 5.04176528,6.43404841 C4.00780542,7.11893286 3.4699313,7.71701524 3.42792101,8.22796113 C3.34579004,9.15500976 3.51554732,9.82807246 3.93802168,10.2471492 C4.24619068,10.5519323 4.74874182,10.7614707 5.44553607,10.8757644 L6.30135706,10.9900581 C6.6220037,11.028156 6.87943874,11.0789531 7.07366457,11.1424496 C7.58965849,11.3075405 7.87964957,11.6250229 7.94347226,12.0948968 C7.97874898,12.3742814 7.68490945,14.0251899 7.05797982,17.0476224 C6.74384196,18.5842372 6.49875025,19.8922647 6.32344687,20.9717049 C6.06145658,22.5083198 5.89788386,23.8480955 5.8337261,24.9910322 C5.73243038,26.7181365 5.98776435,28.1150591 6.60270867,29.1818 C7.26238225,30.3120373 8.15746599,30.7819113 9.28235003,30.5914218 Z" id="path-1"></path>
        <filter x="-1.2%" y="-3.7%" width="102.3%" height="114.7%" filterUnits="objectBoundingBox" id="filter-2">
            <feOffset dx="0" dy="2" in="SourceAlpha" result="shadowOffsetOuter1"></feOffset>
            <feColorMatrix values="0 0 0 0 0   0 0 0 0 0   0 0 0 0 0  0 0 0 1 0" type="matrix" in="shadowOffsetOuter1"></feColorMatrix>
        </filter>
    </defs>
    <g id="页面-1" stroke="none" stroke-width="1" fill="none" fill-rule="evenodd">
        <g id="logo备份-4" fill-rule="nonzero">
            <g id="logo_down" fill="black" fill-opacity="1">
                <use filter="url(#filter-2)" xlink:href="#path-1"></use>
            </g>
            <path d="M20.4677926,3.06720113 C22.4899676,0.736696624 25.0885583,-0.361214653 27.9496464,0.105567713 C30.0566716,0.44649302 31.8432216,1.50668254 33.1664536,3.18649181 L33.1773831,3.20044188 C33.3757885,3.45505432 33.561306,3.71966717 33.7340998,3.99400714 L33.7664213,4.04591374 L34.4664719,3.97034647 L34.5135234,3.90112938 C34.5743026,3.81232787 34.6361044,3.72529219 34.6989466,3.64001532 L34.7621364,3.55532446 C36.1472753,1.71757334 37.9360653,0.523278227 40.0525777,0.130787886 L40.0886598,0.124295145 C41.9510187,-0.200604877 43.8023538,0.124581759 45.5348256,1.04185702 L45.563198,1.05705036 C46.7775701,1.71471348 47.7950392,2.58426254 48.5855096,3.64278762 L48.5995201,3.66185024 L48.6113999,3.63726335 C48.9985837,2.83160642 49.4620848,2.14733768 50.0281463,1.58039036 L50.0965677,1.51291956 C51.5759365,0.0766721247 53.5809919,-0.363270333 55.5391427,0.312370423 L55.5659933,0.32175952 C56.6072368,0.690706104 57.436601,1.32265839 58.0535982,2.14853132 L58.0565917,2.15269277 L58.0818878,2.14037548 C58.1349988,2.11513409 58.1887002,2.09067276 58.2429981,2.06700028 L58.324893,2.03208432 C60.0588233,1.29965034 61.8992302,1.58594881 63.4062524,2.68873328 L63.4221647,2.70044842 C63.6337435,2.85716762 63.8336975,3.02548839 64.0222171,3.20486114 L64.0456104,3.22763297 L64.0874543,3.14692392 C64.3848777,2.58076247 64.7343945,2.08043678 65.1477885,1.64389603 L65.2135938,1.57549831 C66.6709488,0.0845612918 68.6973622,-0.365253747 70.6788221,0.306254405 L70.7048679,0.315197737 C71.7571128,0.681227262 72.6046135,1.3144733 73.2462314,2.14842756 L73.2638231,2.17171081 L73.2996106,2.15388619 C73.3527116,2.12806648 73.4064514,2.10302901 73.4608361,2.07878337 L73.5428975,2.04300997 C74.8998275,1.45681398 76.3221655,1.50752485 77.608706,2.07981423 L77.6309189,2.08991639 L77.6606642,2.05716752 C78.8044785,0.818123502 80.4421415,0.0318754057 82.2663011,0.00264676416 L82.3717458,0.00180254846 C85.8933204,0.00180254846 88.7470479,2.823067 88.7470479,6.30196701 C88.7470479,7.27605901 88.5233157,8.19859238 88.1238357,9.02207115 L88.1064627,9.05657912 L88.1638972,9.10587736 C88.893629,9.74209407 89.509178,10.515159 90.0106776,11.4069947 L90.0614591,11.4986305 L90.1012754,11.5699565 C90.9350048,13.0841068 91.4639787,15.0141772 91.7551919,17.3902801 L91.770492,17.5180698 C92.0504855,19.7598609 92.0748553,22.0199349 91.8405,24.3092479 C91.5717413,26.8164986 91.0334384,28.8701298 90.1611979,30.4972079 L90.151769,30.5146722 C89.5289461,31.6601493 88.7517895,32.5704304 87.7516363,33.1927317 C86.5320033,33.9515947 85.1144562,34.1802684 83.7112061,33.854262 L83.7352747,33.8597628 L83.7318707,33.8589688 L83.7112061,33.854262 L83.6561197,33.8413573 C82.9461837,33.6707464 82.3030148,33.366391 81.7557932,32.9458785 L81.7056596,32.9067202 L81.6647948,32.9374831 C81.4898997,33.0659433 81.3068617,33.1852777 81.1155686,33.2950307 L81.0330802,33.3414798 L80.9973083,33.3612461 L80.9610654,33.3801566 C79.4742597,34.1559302 77.8072813,34.1909847 76.2480054,33.5484301 L76.2296161,33.5408522 L76.2113179,33.5330623 C75.4278427,33.1995245 74.723097,32.718537 74.0882304,32.1071702 L74.0156662,32.0364344 L73.995522,32.0589824 C73.1135115,33.0256068 71.918645,33.619765 70.5393478,33.7038907 L70.4580009,33.7082499 C68.7966452,33.7929209 67.3227299,33.1546845 66.1718491,31.997464 L66.1500213,31.975341 L66.1355322,31.9924163 C65.6712058,32.5231115 65.1306108,32.9684999 64.5102424,33.314576 L64.4251519,33.3611513 L64.3906642,33.3796703 L64.3557538,33.3973995 C62.8630041,34.1554892 61.1981861,34.1904596 59.6495786,33.5381767 L59.6305477,33.5301608 L59.6116168,33.5219172 C58.8244349,33.1791332 58.1253966,32.6855851 57.5058865,32.0604984 L57.4793779,32.033405 L57.4389586,32.077181 C56.539704,33.0332208 55.345275,33.6196005 53.9729578,33.7037504 L53.8887171,33.7082738 C51.9007343,33.8093206 50.1881596,32.8739984 49.015158,31.250786 C48.8561292,31.0307201 48.7065486,30.798264 48.5658013,30.5531868 L48.5277943,30.4860431 L48.4997704,30.5137924 C47.7907157,31.2044555 46.992835,31.8121498 46.1134412,32.3330645 L45.9872598,32.4068901 C44.3315932,33.3716648 42.6128021,33.9146697 40.8606744,33.9906719 L40.8473709,33.9912232 C38.7027777,34.0759561 36.761898,33.4320262 35.2264184,32.0652478 L35.1685326,32.0134206 C35.0267921,31.8849526 34.8900937,31.7500347 34.7582319,31.608643 L34.6981752,31.5433117 L34.6501677,31.6015364 C34.1880995,32.152569 33.6569659,32.6274413 33.0571116,33.0161411 L32.9618267,33.0767971 L32.9050457,33.1121932 C31.608793,33.9105112 30.145784,34.2064458 28.6790319,33.8519515 L28.5944086,33.8307772 C27.4765834,33.5408675 26.5174803,33.0053376 25.7215826,32.2640472 L25.7140509,32.256909 L25.6726255,32.2983184 C24.6106629,33.33928 23.250549,33.9206822 21.744906,33.8843867 L21.6578816,33.8816062 C19.8896684,33.8151856 18.385338,32.9372014 17.2795318,31.5049425 C16.3575591,30.3033401 15.7800962,28.8138686 15.4862064,27.062472 L15.4666326,26.9433014 L15.4554491,27.0091608 C15.3041076,27.8761401 15.0999951,28.6608518 14.838942,29.3674349 L14.8012609,29.4678443 C13.8956019,31.8439324 12.2388635,33.4865684 9.88495214,33.9043907 L9.85805929,33.9090544 C7.25403428,34.3500237 4.99175698,33.1605782 3.6508184,30.8631102 L3.64176129,30.8474961 C2.66751933,29.1574834 2.29532589,27.1271523 2.43155172,24.804664 C2.50323785,23.5276134 2.68125322,22.0673161 2.9633717,20.4126462 L2.95908508,20.4384573 L2.97821632,20.3213312 C3.15281085,19.2595008 3.38809071,18.0027992 3.68651659,16.5358055 L3.719935,16.37194 C3.90382555,15.4854023 4.05853282,14.7191292 4.18346881,14.0766539 L4.18796431,14.0529389 L4.10962878,14.0329912 C3.13711635,13.7794384 2.29076839,13.3547611 1.59091002,12.6876699 L1.52363978,12.6223535 C0.284098962,11.3927812 -0.128229823,9.75995115 0.033494736,7.9344943 L0.0319570961,7.95538392 L0.0331496865,7.9400685 L0.033494736,7.9344943 L0.0400294818,7.86546148 C0.147538738,6.8201162 0.61699748,5.93752662 1.31485772,5.16132523 C1.51875209,4.93454186 1.74410386,4.71560177 1.99172801,4.50161949 L2.04999044,4.4520247 L2.06366747,4.39003207 C2.32834155,3.24246659 2.98120335,2.2441779 4.08309306,1.57128441 L4.15254639,1.52965385 C6.22119059,0.307031146 8.66859299,-0.164819205 11.4151213,0.0535000958 C14.4724815,0.297680814 17.039623,1.22962031 19.0310663,2.91370606 C19.3584572,3.1918209 19.6325049,3.49665162 19.8557361,3.82218038 L19.8558764,3.82224135 L19.8705713,3.80270681 C20.0239376,3.59918536 20.1810516,3.40280052 20.3419971,3.21355186 L20.4227896,3.11952221 L20.4677926,3.06720113 Z M38.433198,22.1606842 L38.4334428,22.1625953 C38.5248505,22.9526055 38.6459093,23.6951755 38.7960014,24.3896266 C38.990028,25.2737629 39.211383,25.975212 39.443961,26.4833872 C39.536223,26.6849767 39.6242062,26.8427223 39.702767,26.9566712 C39.7466603,27.0203365 39.7726599,27.0502021 39.7748755,27.0521534 L39.788281,27.0640229 C39.9586698,27.2156913 40.1558553,27.2811119 40.575026,27.2645505 L40.5718533,27.2645885 L40.6244809,27.2617025 C41.1705216,27.2262627 41.7724174,27.0348546 42.4562953,26.6477878 L42.5355696,26.6022557 C43.2835904,26.1699934 43.8680113,25.647049 44.3182256,25.0187377 L44.3058539,25.0354382 L44.3306436,24.9994537 C44.4609488,24.8065208 44.5619947,24.6282487 44.6375228,24.4625441 L44.6385866,24.4598479 L44.6187339,24.4693852 C43.3091999,25.0773097 41.8692193,25.1661488 40.5204141,24.4707411 L40.5035349,24.4616992 L40.4887483,24.4544306 C39.5113931,23.9528435 38.8299748,23.1527322 38.4488165,22.2006203 L38.433198,22.1606842 Z M25.9004357,18.6574933 L25.8731809,18.6749087 C25.0982616,19.1570974 24.2007503,19.4110536 23.1999578,19.3568602 C22.8187231,19.3369828 22.457298,19.2747569 22.1167707,19.1746326 L22.0461539,19.1531405 L22.0436779,19.1827325 C21.9573365,20.2443051 21.9171934,21.257008 21.9226818,22.2211292 L21.9226356,22.2266583 L21.9385364,22.1955327 C21.9822395,22.1101546 22.027982,22.0274434 22.0759221,21.9470586 L22.1049511,21.8991041 C22.462969,21.3097852 22.9591754,20.8010035 23.6833242,20.4526773 C24.65609,19.9847626 25.7497965,19.9847626 26.6975345,20.3903512 C27.6821558,20.8117242 28.2235938,21.4374684 28.7034216,22.2774264 C29.0851679,22.9436237 29.3442657,23.7438758 29.5873235,24.8189923 L29.5830741,24.8004427 L29.6934574,25.2760516 L29.700885,25.3080547 L29.7076791,25.3401948 L29.8036138,25.7944769 L29.81378,25.8348646 C29.8293469,25.8968469 29.8446761,25.9571165 29.85976,26.0156556 L29.8617099,26.0237032 L29.8688053,25.9430211 C29.8708851,25.9156814 29.8727049,25.8880275 29.8742629,25.8600533 L29.8781502,25.7751632 C29.9015378,25.1271364 29.7723058,24.4177203 29.4687847,23.6297446 L29.470881,23.6356765 L29.4187349,23.5054541 C29.2218597,23.0234281 29.0007618,22.573898 28.7558437,22.1557497 L28.6816541,22.0312456 L28.6707959,22.013206 C28.5718517,21.8476489 28.4568923,21.6717155 28.3257626,21.4860594 L28.3600682,21.5352767 L28.3112292,21.4712113 C28.2769647,21.4261798 28.2414929,21.37927 28.2047931,21.330459 L28.1648242,21.2771026 L28.0737006,21.1587762 L27.9712765,21.0256057 L27.9322815,20.974905 L27.8952555,20.9227836 C27.4414755,20.283999 27.1351201,19.7632965 26.9424068,19.1743652 L26.9323672,19.1428742 L26.890349,19.1294149 C26.5558147,19.0185535 26.2423337,18.8704295 25.9509942,18.6894932 L25.9004357,18.6574933 Z M61.0200853,24.040301 C61.0404995,24.1257226 61.06092,24.2121272 61.0813572,24.2995266 C61.1262064,24.4918036 61.1730211,24.6765976 61.2216628,24.8539034 L61.2411488,24.9238545 L61.2371394,24.9006988 C61.1831904,24.6056083 61.1086967,24.3033164 61.0133012,23.9942483 L60.9954752,23.9381139 L61.0200853,24.040301 Z M38.3795314,14.8251051 L38.369284,14.9411009 C38.2813797,15.9476952 38.2329432,16.9976861 38.2245771,18.0894503 C38.2233962,18.4242474 38.2261212,18.7531296 38.2327238,19.0760658 L38.2345465,19.161219 L38.2380489,19.1471003 C38.3051334,18.8735257 38.3957327,18.6041306 38.5098326,18.340824 L38.5487363,18.2532832 L38.5690993,18.2085833 L38.5907713,18.164488 C38.881014,17.5739415 39.2814119,17.0611044 39.7718418,16.6562737 L39.8109806,16.6242457 L39.7925368,16.6112674 C39.1957223,16.1797023 38.7102794,15.5788286 38.3897977,14.8487306 L38.3795314,14.8251051 Z M69.1785195,13.8060409 L69.1776341,13.9499585 C69.1742396,14.5850033 69.1798671,15.2534816 69.1947644,15.9549516 C69.2090497,16.7550248 69.234259,17.5199548 69.2702115,18.249568 L69.2712008,18.2705687 L69.2968243,18.2429417 C69.9511362,17.5432236 70.8461469,17.1467911 71.7799606,17.1126787 L71.789611,17.1123194 L71.7884092,17.1093606 C71.3882392,16.1849149 71.3836945,15.17304 71.7455118,14.2719901 L71.7589444,14.2392484 L71.7278021,14.2457868 C70.8756862,14.4126872 69.9684812,14.286849 69.1806257,13.8075069 L69.1785195,13.8060409 Z M53.4905038,13.7191975 L53.4853937,13.8006842 C53.4394061,14.5313705 53.4033415,15.3078928 53.3776133,16.1296039 C53.3545074,16.7956193 53.3402545,17.4372342 53.3347499,18.0543293 L53.3339337,18.1505699 L53.3630064,18.1220002 C54.0555998,17.4506935 54.9857704,17.0882208 55.9456403,17.1108392 L55.9852325,17.1121511 L55.9607998,17.0532897 L55.9280001,16.9697587 C55.5956609,16.0959356 55.6104788,15.1702147 55.9282319,14.3418961 L55.9509881,14.2838482 L55.9171739,14.2884081 C55.1137761,14.3893317 54.2762347,14.2321445 53.5471232,13.7569099 L53.4905038,13.7191975 Z M23.0927371,13.0165397 L23.0492437,13.1777293 L23.0467372,13.1870289 L23.0574916,13.1911029 C23.1411672,13.2212563 23.2268204,13.2466954 23.3138068,13.2671221 L23.3264849,13.2698331 L23.326609,13.2629708 C23.3269679,13.2260437 23.327575,13.18905 23.3284295,13.151991 L23.331596,13.0421215 L23.0927371,13.0165397 Z M23.3561292,12.6326445 L23.2958063,12.6356903 C23.2735229,12.637084 23.2513107,12.6387948 23.2291788,12.6408174 L23.1976851,12.644089 L23.161268,12.7707933 C23.14217,12.8381791 23.1232855,12.9057833 23.1046147,12.973606 L23.1000631,12.9901164 L23.3329589,13.0099759 L23.3365179,12.9288608 C23.3401988,12.8542285 23.3448619,12.7793436 23.3505001,12.7042154 L23.3561292,12.6326445 Z M10.8672376,6.76375903 C9.99614394,6.69451658 9.26570413,6.74498611 8.65185133,6.90208371 L8.61162288,6.91258925 L8.59445536,6.97473903 C8.49708158,7.3153215 8.35489133,7.64135359 8.17209197,7.94442409 L8.16610518,7.95403751 L8.19588022,7.96389894 C9.30030566,8.33467569 10.1980751,9.03942551 10.7525319,9.98465633 L10.7761745,10.0258261 L10.8094422,9.98639936 C10.8628742,9.9238272 10.9188057,9.86195666 10.9774264,9.800648 L11.0369505,9.73952145 L11.0556097,9.72084945 C11.7202592,9.0609053 12.5100954,8.67797935 13.383137,8.49517357 L13.4581399,8.47981067 L12.4382401,7.3245475 L12.722482,7.07988071 L12.6677248,7.06435108 C12.1695337,6.92680382 11.6065501,6.82858531 10.9734112,6.77268364 L10.8672376,6.76375903 Z M42.2614203,6.94735953 C41.869014,6.74867286 41.5739149,6.70140684 41.2738188,6.75376046 L41.2916668,6.75085173 L41.2759875,6.75409726 C40.959604,6.82291035 40.6463495,7.0352971 40.2668742,7.52516943 L40.2259596,7.57872366 C39.9666762,7.92193777 39.701965,8.46806051 39.4509497,9.21006402 L39.4450257,9.22740491 L39.4891183,9.18511462 C40.2488819,8.46891254 41.1942905,8.04495626 42.25349,7.8482636 L42.2816872,7.84312697 L42.3035932,7.83869029 C42.5529871,7.78918696 42.8202108,7.75110628 43.1142048,7.72080346 L43.155856,7.71656442 L43.1394205,7.692469 C42.9450779,7.41553247 42.6921489,7.19023954 42.3519814,6.99622034 L42.3038353,6.96930678 L42.2614203,6.94735953 Z M82.3717458,5.87008071 C82.1284241,5.87008071 81.9322456,6.06402753 81.9322456,6.30196701 C81.9322456,6.53990648 82.1284241,6.73385331 82.3717458,6.73385331 C82.6150674,6.73385331 82.8112459,6.53990648 82.8112459,6.30196701 C82.8112459,6.06402753 82.6150674,5.87008071 82.3717458,5.87008071 Z" id="logo_down" fill="#000000"></path>
            <path d="M83.5977267,10.681741 L83.8083686,10.6952197 C84.4093154,10.7415981 84.9835329,10.9549386 85.5323169,11.3352413 C86.1447112,11.7619224 86.6583239,12.3555656 87.0733332,13.116171 C87.7031353,14.2292521 88.1426786,15.833944 88.3887335,17.9302467 C88.6366538,19.9152413 88.6599592,21.923425 88.4520431,23.954798 C88.2253464,26.069652 87.7914233,27.7253601 87.1499728,28.9219223 C86.4186793,30.2668952 85.5293434,30.8187979 84.4912704,30.5776304 C83.9548103,30.4570466 83.59268,30.160225 83.4049751,29.6871655 C83.2502357,29.3161385 83.1645054,28.6761169 83.1472629,27.7671007 C83.1476656,27.5908628 83.14601,27.3728844 83.1422908,27.1131655 L83.1380365,26.7514142 L83.1471855,26.3896628 C83.1420634,25.7403655 83.1322197,25.1791872 83.1177469,24.7061277 C83.0717919,23.240571 82.9398007,21.8167548 82.7235264,20.4346791 C82.6347548,19.8595872 82.4482513,19.1360845 82.1652972,18.264171 L81.9846597,17.7076305 L81.8054857,17.1650034 C81.6481365,16.7104953 81.5294104,16.3441061 81.4489902,16.0658359 C80.9338605,14.3312845 80.8670328,13.0141386 81.2400674,12.1143981 C81.4446336,11.6320629 81.7823084,11.2610359 82.2529635,11.001317 C82.7223563,10.7415981 83.2404298,10.6395657 83.8083686,10.6952197 Z M66.4249533,6.70682958 C67.0312774,4.05479956 68.0754254,2.98256733 69.5731299,3.49013288 C70.302693,3.74391566 70.8095882,4.36568346 71.0938955,5.35543629 C71.4322344,6.54821535 71.3710532,8.09629029 70.9022762,9.99966112 C70.7853588,10.4691593 70.7890336,10.767354 70.9137771,10.8942454 C71.0200008,11.0084477 71.2105411,10.9323128 71.4849113,10.6658409 C72.1438762,10.0186948 72.7914522,8.8195712 73.4225418,7.06847004 C73.7882435,6.04064979 74.2828936,5.39350371 74.9081552,5.12703179 C75.4662402,4.88593816 76.0413835,4.97476213 76.6356234,5.39350371 C77.2229494,5.81224529 77.681095,6.44670224 78.0098984,7.29687454 C78.3661651,8.22318168 78.4905253,9.20024537 78.3804507,10.2280656 C78.2596999,11.3320207 77.9395759,12.2837061 77.4189346,13.0831219 C77.062426,13.6287548 76.580652,14.1363204 75.9731832,14.6058185 C75.8909252,14.6692642 75.7788417,14.7453991 75.6368914,14.834223 L75.4885234,14.9484253 L75.3533622,15.0626275 C75.1539062,15.2022081 75.0235468,15.3227549 74.9624038,15.424268 C74.7979174,15.6526725 74.9075854,15.9064553 75.2921612,16.1856163 C77.4302153,17.7336913 79.0452747,19.7385752 80.1315341,22.2002681 C80.6404466,23.3676689 80.9511197,24.5033468 81.0611909,25.6073019 C81.1770255,26.7620136 81.0603587,27.7961784 80.7091869,28.7097964 C80.3905163,29.5219013 79.943773,30.0865679 79.3696703,30.4037964 C78.810326,30.6956466 78.2064838,30.7083357 77.5598411,30.4418638 C76.8742894,30.1500136 76.236732,29.5726578 75.6484035,28.7097964 C75.0081028,27.758111 74.4760372,26.5399536 74.0517287,25.0553244 C73.3903454,22.7459011 72.7900528,21.2929947 72.247031,20.6966052 C72.03671,20.4682007 71.8828125,20.4174441 71.7850402,20.5443355 C71.6871722,20.6712269 71.6710209,20.905976 71.7367227,21.2485827 L71.7552541,21.3056838 L71.7754261,21.3818187 L71.8037865,21.5531221 C71.8350757,21.7053917 71.8618319,21.8576614 71.8840478,22.0099311 C71.9544055,22.4032944 72.0202952,22.7966577 72.0816983,23.190021 C72.2344057,24.3193543 72.3177349,25.3344854 72.3310686,26.2354143 C72.3385342,28.9128226 71.6547945,30.2832496 70.2824416,30.3466953 C68.788576,30.4228301 67.6402273,28.9445454 66.8469852,25.9118413 C66.2106808,23.4120809 65.8610734,20.1129048 65.7878931,16.0143129 C65.7010996,11.9284102 65.9146365,8.82591577 66.4249533,6.70682958 Z M82.3717458,3.36782793 C84.0108722,3.36782793 85.3396468,4.68148674 85.3396468,6.30196701 C85.3396468,7.92244728 84.0108722,9.23610609 82.3717458,9.23610609 C80.7326193,9.23610609 79.4038447,7.92244728 79.4038447,6.30196701 C79.4038447,4.68148674 80.7326193,3.36782793 82.3717458,3.36782793 Z M62.7978536,30.4037964 C63.388626,30.0865679 63.8650412,29.5219013 64.2263862,28.7097964 C64.6255665,27.7961784 64.7965764,26.7620136 64.7414192,25.6073019 C64.6893583,24.5033468 64.4383626,23.3676689 63.9907944,22.2002681 C63.0338914,19.7385752 61.5241841,17.7336913 59.4674779,16.1856163 C59.0975714,15.9064553 59.001239,15.6526725 59.1777276,15.424268 C59.2442049,15.3227549 59.3808988,15.2022081 59.5876895,15.0626275 L59.7288517,14.9484253 L59.8832208,14.834223 C60.0298385,14.7453991 60.1459227,14.6692642 60.2315147,14.6058185 C60.8636545,14.1363204 61.3721,13.6287548 61.7572803,13.0831219 C62.3199292,12.2837061 62.6900621,11.3320207 62.8688233,10.2280656 C63.0329075,9.20024537 62.9598898,8.22318168 62.6522984,7.29687454 C62.3681696,6.44670224 61.9433634,5.81224529 61.3780412,5.39350371 C60.8058053,4.97476213 60.2353295,4.88593816 59.6645755,5.12703179 C59.0253115,5.39350371 58.4966553,6.04064979 58.0769439,7.06847004 C57.3538379,8.8195712 56.6432507,10.0186948 55.9502798,10.6658409 C55.6619071,10.9323128 55.467366,11.0084477 55.3671434,10.8942454 C55.2490677,10.767354 55.2610624,10.4691593 55.4026509,9.99966112 C55.9714457,8.09629029 56.1139748,6.54821535 55.8383137,5.35543629 C55.6060157,4.36568346 55.131793,3.74391566 54.4155656,3.49013288 C52.9445325,2.98256733 51.8440411,4.05479956 51.0983589,6.70682958 C50.4766889,8.82591577 50.1001229,11.9284102 49.9722114,16.0143129 C49.83002,20.1129048 50.0062631,23.4120809 50.5112107,25.9118413 C51.145091,28.9445454 52.2157592,30.4228301 53.7136255,30.3466953 C55.0893124,30.2832496 55.8450648,28.9128226 55.9782911,26.2354143 C56.0122992,25.3344854 55.9823128,24.3193543 55.8889493,23.190021 C55.8482166,22.7966577 55.8029972,22.4032944 55.7533098,22.0099311 C55.7390954,21.8576614 55.7203406,21.7053917 55.6970528,21.5531221 L55.677694,21.3818187 L55.6615227,21.3056838 L55.645992,21.2485827 C55.5982933,20.905976 55.6267801,20.6712269 55.7313161,20.5443355 C55.8357562,20.4174441 55.9869866,20.4682007 56.1853054,20.6966052 C56.6969882,21.2929947 57.2209339,22.7459011 57.7609622,25.0553244 C58.1072567,26.5399536 58.575311,27.758111 59.1656027,28.7097964 C59.7085898,29.5726578 60.3158085,30.1500136 60.9860241,30.4418638 C61.6186643,30.7083357 62.2231733,30.6956466 62.7978536,30.4037964 Z M40.7111985,30.6278868 C41.8784281,30.5772558 43.0613474,30.203852 44.2560681,29.5076755 C45.4169791,28.8368144 46.3647282,27.9887448 47.0993879,26.9634666 C47.8562406,25.8748996 48.2307706,24.7863326 48.2272104,23.6977656 C48.2191731,22.2421237 47.7944129,21.2927921 46.9548971,20.8497706 C46.0720298,20.3814337 44.853829,20.5523134 43.2915786,21.3624097 C42.8119275,21.6155648 42.4068603,21.6535381 42.0773096,21.4763295 C41.7937169,21.3370942 41.6128302,21.0712814 41.5346119,20.6788909 C41.4654836,20.311816 41.5060762,19.9637277 41.6559982,19.6346261 C41.8239667,19.2928667 42.0721973,19.0966715 42.4008968,19.0460405 C43.377063,18.9194629 44.1024184,18.5587169 44.5761331,17.9638024 C45.0025998,17.4195189 45.196487,16.7233423 45.1591769,15.8752727 C45.1221594,15.0904918 44.8567522,14.5082351 44.3638019,14.1285024 C43.8632728,13.736112 43.2641081,13.6664943 42.5643172,13.9196494 C41.9711955,14.1348313 41.5928589,13.9133206 41.4305816,13.2551173 C41.3714328,12.9766466 41.3704347,12.6918471 41.4274109,12.4007188 C41.4933213,12.0969326 41.6116983,11.8564353 41.7824827,11.6792267 C42.0338205,11.4134138 42.4169242,11.2362053 42.9319039,11.147601 C43.1094518,11.1096277 43.3445322,11.0779833 43.6371414,11.0526678 L44.0094397,11.0336812 L44.3684227,10.9957079 C44.9620805,10.9324191 45.4180375,10.8058416 45.7361696,10.6159752 C46.1861285,10.3501624 46.4973464,9.92612755 46.6699145,9.34387079 C46.9702767,8.3439081 46.8354389,7.33128765 46.2702019,6.30600945 C45.7353549,5.33136227 44.9535739,4.56556805 43.9251843,4.0086268 C42.849374,3.4390278 41.7695718,3.24916147 40.6812393,3.4390278 C39.4526094,3.6668674 38.3919658,4.37570172 37.4951748,5.56553074 C36.663247,6.66675548 36.0057984,8.41352575 35.5224123,10.8058416 C35.0743174,13.008291 34.8374377,15.4322512 34.8171966,18.0777222 C34.8079104,20.7105353 35.0227458,23.0522201 35.4659534,25.1027765 C35.9492882,27.305226 36.6306537,28.7925123 37.5073497,29.5646354 C38.3605557,30.3241007 39.4297253,30.6785179 40.7111985,30.6278868 Z M23.0093274,5.31074082 C24.3073019,3.78879239 25.7663607,3.16098866 27.398877,3.42732963 C28.6530261,3.63025609 29.6780612,4.23903547 30.477315,5.25366775 C31.2086631,6.19220262 31.7000798,7.38439556 31.9500307,8.83024657 C32.179635,10.2126831 32.1584108,11.6585341 31.8824846,13.1677996 C31.5948148,14.689748 31.0695621,16.0658431 30.3039274,17.2960847 C30.1382914,17.5624257 30.0939417,17.8287667 30.1712187,18.0951077 C30.2252309,18.2853512 30.3960969,18.5833995 30.6844068,18.9892524 L30.7868309,19.1224229 L30.8893559,19.2555933 C30.9747279,19.3697395 31.0516809,19.4712027 31.1201945,19.559983 C31.2993543,19.8136411 31.4609719,20.0609577 31.6049892,20.3019329 C32.0047763,20.9614439 32.3543113,21.6716865 32.6534239,22.4326607 C33.1126459,23.6248536 33.3236684,24.7789979 33.2833879,25.8950934 C33.2472271,26.8970428 33.0190106,27.7975289 32.5971502,28.5965519 C32.2136421,29.3194774 31.7276587,29.8648422 31.1394383,30.2326464 C30.5592103,30.6004506 29.9988095,30.7145968 29.4596633,30.5750848 C28.1882017,30.2453293 27.2856947,29.2433799 26.7553128,27.5692367 C26.6698947,27.2775299 26.5783642,26.9350915 26.4808115,26.5419215 L26.3722282,26.0282639 L26.2618449,25.552655 C26.0869398,24.7789979 25.9125642,24.2399745 25.7381419,23.9355848 C25.4483344,23.4282686 25.2115204,23.3268054 25.0266003,23.6311951 C24.76947,24.0497309 24.5531953,25.2355824 24.3778091,27.1887496 C24.2801785,28.2414306 23.9766837,29.0785022 23.4660037,29.6999645 C22.9851194,30.2706951 22.4251197,30.5433776 21.7873559,30.5180118 C21.1120812,30.4926459 20.5140214,30.1438661 19.9950306,29.4716722 C19.4111457,28.710698 19.0183158,27.658017 18.8162191,26.3136292 C18.4808935,24.0941211 18.4264713,21.6272963 18.6472219,18.9131549 C18.8761385,16.1102332 19.3558084,13.5356038 20.0794145,11.1892666 C20.8656343,8.61463721 21.8422405,6.6551286 23.0093274,5.31074082 Z M23.893574,9.96295461 C23.4012332,9.93700812 22.953911,10.2094463 22.5510157,10.780269 C22.1657178,11.3510918 21.9272736,12.0516471 21.8361314,12.8819347 C21.7632986,13.7122224 21.8824788,14.4257509 22.1942663,15.0225202 C22.4866497,15.6452359 22.8819159,15.969567 23.3795518,15.9955135 C23.8587407,16.02146 24.3006547,15.7490219 24.7047036,15.1781991 C25.1080094,14.6073763 25.3431885,13.9068211 25.4107579,13.0765334 C25.4782732,12.2462457 25.3653096,11.519744 25.0724549,10.8970282 C24.7787573,10.300259 24.3859604,9.9889011 23.893574,9.96295461 Z M28.81181,9.96295461 C28.3194692,9.93700812 27.8721469,10.2094463 27.4692516,10.780269 C27.0839538,11.3510918 26.8455095,12.0516471 26.7543673,12.8819347 C26.6815345,13.7122224 26.8007148,14.4257509 27.1125022,15.0225202 C27.4048857,15.6452359 27.8001519,15.969567 28.2977878,15.9955135 C28.7769766,16.02146 29.2188906,15.7490219 29.6229396,15.1781991 C30.0262453,14.6073763 30.2614244,13.9068211 30.3289938,13.0765334 C30.3965091,12.2462457 30.2835456,11.519744 29.9906908,10.8970282 C29.6969933,10.300259 29.3041964,9.9889011 28.81181,9.96295461 Z M23.6535211,7.89478537 C24.4690978,9.25330946 25.0262418,9.6310264 25.3249532,9.02793616 C25.6236645,8.42484593 25.0665205,8.04712899 23.6535211,7.89478537 Z M29.4734097,7.89478537 C28.0604104,8.04712899 27.5032663,8.42484593 27.8019777,9.02793616 C28.100689,9.6310264 28.6578331,9.25330946 29.4734097,7.89478537 Z M9.28235003,30.5914218 C11.3571495,30.2231422 12.38616,27.5118425 12.3870467,22.4575226 C12.3913762,19.7906704 12.4892806,17.5111467 12.677021,15.6189516 C12.8788177,13.5997634 13.1437657,12.4250785 13.4711573,12.0948968 C13.6885846,11.8790088 14.0456793,11.7583655 14.5425991,11.7329669 L15.2310107,11.7329669 L15.5865535,11.7520158 L15.9458997,11.7329669 C16.5208014,11.7202676 16.9823434,11.5996243 17.3301637,11.371037 C17.7889874,11.0789531 18.1153193,10.5900302 18.3093502,9.90426824 C18.4634752,9.37845572 18.1093061,8.62713267 17.2468427,7.65029909 L17.2479392,7.64933469 C17.0962526,7.4768661 17.0437199,7.238606 17.1088147,7.01834042 C17.3129118,6.32618824 17.2129174,5.80863916 16.8094099,5.46586419 C15.4128191,4.28482964 13.5256324,3.59906764 11.1405348,3.4085782 C9.06363552,3.24348735 7.32009718,3.5800187 5.90196427,4.41817225 C5.48308735,4.66459768 5.29554694,5.13719512 5.33934303,5.8359646 L5.33939265,5.83596154 C5.3540403,6.07415517 5.24060986,6.30209542 5.04176528,6.43404841 C4.00780542,7.11893286 3.4699313,7.71701524 3.42792101,8.22796113 C3.34579004,9.15500976 3.51554732,9.82807246 3.93802168,10.2471492 C4.24619068,10.5519323 4.74874182,10.7614707 5.44553607,10.8757644 L6.30135706,10.9900581 C6.6220037,11.028156 6.87943874,11.0789531 7.07366457,11.1424496 C7.58965849,11.3075405 7.87964957,11.6250229 7.94347226,12.0948968 C7.97874898,12.3742814 7.68490945,14.0251899 7.05797982,17.0476224 C6.74384196,18.5842372 6.49875025,19.8922647 6.32344687,20.9717049 C6.06145658,22.5083198 5.89788386,23.8480955 5.8337261,24.9910322 C5.73243038,26.7181365 5.98776435,28.1150591 6.60270867,29.1818 C7.26238225,30.3120373 8.15746599,30.7819113 9.28235003,30.5914218 Z" id="logo_up" fill="#FFFFFF"></path>
        </g>
    </g>
</svg>