<?xml version="1.0" encoding="UTF-8"?>
<svg width="36px" height="36px" viewBox="0 0 36 36" version="1.1" xmlns="http://www.w3.org/2000/svg" xmlns:xlink="http://www.w3.org/1999/xlink">
    <title>medium logo备份</title>
    <g id="页面-1" stroke="none" stroke-width="1" fill="none" fill-rule="evenodd">
        <g id="medium-logo备份">
            <g id="编组-20备份" fill="#000000">
                <rect id="矩形" x="0" y="0" width="36" height="36"></rect>
            </g>
            <g id="编组-8" transform="translate(3.000000, 10.000000)" fill="#FFFFFF">
                <path d="M16.9217583,8.49985667 C16.9217583,13.1942566 13.1336909,17 8.46073549,17 C3.78778012,17 0,13.1954033 0,8.49985667 C0,3.80431007 3.78806742,0 8.46073549,0 C13.1334036,0 16.9217583,3.80545672 16.9217583,8.49985667" id="路径"></path>
                <path d="M26.2036008,8.49985667 C26.2036008,12.9190597 24.3094235,16.5012057 21.9730894,16.5012057 C19.6367554,16.5012057 17.7425781,12.9179131 17.7425781,8.49985667 C17.7425781,4.08180025 19.6367554,0.498507664 21.9730894,0.498507664 C24.3094235,0.498507664 26.2036008,4.08180025 26.2036008,8.49985667" id="路径"></path>
                <path d="M30,8.49985667 C30,12.4592516 29.3337483,15.6687351 28.5120667,15.6687351 C27.690385,15.6687351 27.0241333,12.458105 27.0241333,8.49985667 C27.0241333,4.54160835 27.690385,1.3309782 28.512354,1.3309782 C29.3343229,1.3309782 30,4.54074836 30,8.49985667" id="路径"></path>
            </g>
        </g>
    </g>
</svg>